<?xml version="1.0"?>
<svg xmlns="http://www.w3.org/2000/svg" xmlns:xlink="http://www.w3.org/1999/xlink" xmlns:svgjs="http://svgjs.com/svgjs" version="1.1" width="512" height="512" x="0" y="0" viewBox="0 0 512.00025 512" style="enable-background:new 0 0 512 512" xml:space="preserve" class=""><g><path xmlns="http://www.w3.org/2000/svg" d="m87.050781 97.65625c4.25 4.25 9.898438 6.589844 15.910157 6.589844 6.007812 0 11.660156-2.339844 15.910156-6.589844 8.773437-8.773438 8.773437-23.046875 0-31.820312-4.25-4.25-9.902344-6.589844-15.910156-6.589844-6.011719 0-11.660157 2.339844-15.910157 6.589844-8.773437 8.773437-8.773437 23.046874 0 31.820312zm10.605469-21.214844c1.417969-1.414062 3.300781-2.195312 5.300781-2.195312 2.003907 0 3.890625.78125 5.304688 2.195312 2.925781 2.925782 2.925781 7.683594 0 10.609375-1.417969 1.414063-3.300781 2.195313-5.304688 2.195313-2 0-3.886719-.78125-5.300781-2.195313-2.925781-2.925781-2.925781-7.683593 0-10.609375zm0 0" fill="#dcb025" data-original="#000000" style="" class=""/><path xmlns="http://www.w3.org/2000/svg" d="m430.253906 386.539062c-6.011718 0-11.660156 2.34375-15.910156 6.59375-8.773438 8.769532-8.773438 23.046876 0 31.816407 4.25 4.25 9.898438 6.589843 15.910156 6.589843 6.007813 0 11.660156-2.339843 15.910156-6.589843 8.773438-8.769531 8.773438-23.046875 0-31.816407-4.25-4.25-9.898437-6.59375-15.910156-6.59375zm5.304688 27.804688c-1.417969 1.417969-3.300782 2.195312-5.304688 2.195312s-3.886718-.777343-5.304687-2.195312c-2.921875-2.925781-2.921875-7.683594 0-10.605469 1.417969-1.417969 3.300781-2.199219 5.304687-2.199219s3.886719.78125 5.304688 2.199219c2.921875 2.921875 2.921875 7.679688 0 10.605469zm0 0" fill="#dcb025" data-original="#000000" style="" class=""/><path xmlns="http://www.w3.org/2000/svg" d="m509.804688 393.132812-86.671876-86.671874c-.003906-.003907-61.097656-61.097657-61.097656-61.097657l78.671875-78.671875c.105469-.09375.210938-.179687.3125-.28125.097657-.097656.1875-.203125.277344-.308594l27.964844-27.964843c.011719-.007813 31.796875-31.792969 31.796875-31.792969 7.054687-7.058594 10.941406-16.46875 10.941406-26.503906s-3.886719-19.445313-10.941406-26.5l-42.398438-42.398438c-7.054687-7.054687-16.464844-10.941406-26.5-10.941406s-19.445312 3.886719-26.5 10.941406l-31.792968 31.789063c0 .003906-28.261719 28.265625-28.261719 28.265625-.003907 0-78.96875 78.96875-78.96875 78.96875l-16.84375-16.84375c-.011719-.011719-44.246094-44.246094-44.246094-44.246094-.011719-.011719-86.675781-86.679688-86.675781-86.679688-2.929688-2.925781-7.679688-2.925781-10.605469 0l-106.070313 106.066407c-2.925781 2.929687-2.925781 7.679687 0 10.605469l147.769532 147.769531-84.097656 84.097656c-.175782.171875-.339844.355469-.492188.542969-.082031.097656-.148438.199218-.222656.296875-.070313.09375-.144532.1875-.207032.285156-.085937.125-.164062.257813-.238281.386719-.046875.078125-.09375.148437-.132812.226562-.078125.144532-.144531.289063-.210938.433594-.027343.058594-.058593.117188-.085937.171875l-.046875.109375c-.015625.039062-31.578125 73.632812-31.578125 73.632812-.148438.289063-.269532.582032-.378906.882813l-31.664063 73.839844c-1.210937 2.820312-.5820312 6.089843 1.585937 8.261719 1.4375 1.433593 3.355469 2.195312 5.304688 2.195312.996094 0 2.003906-.199219 2.957031-.605469l73.832031-31.667969c.308594-.109374.609376-.234374.902344-.386718l73.582032-31.554688c.035156-.015625.144531-.0625.144531-.0625.0625-.027344.121093-.058594.179687-.085937.144532-.066407.285156-.132813.425782-.207031.082031-.042969.15625-.09375.234374-.140626.128907-.074218.257813-.148437.382813-.230468.097656-.066406.191406-.140625.289063-.214844.097656-.070312.195312-.140625.289062-.21875.191406-.152344.371094-.316406.546875-.492188l105.308594-105.308593 142.464843 142.464843-10.605468 10.605469-126.554688-126.554687c-2.929687-2.929688-7.675781-2.929688-10.605468 0-2.929688 2.929687-2.929688 7.679687 0 10.605468l131.855468 131.859376c1.464844 1.460937 3.386719 2.195312 5.304688 2.195312 1.917968 0 3.839844-.730469 5.304687-2.195312l106.066407-106.066407c2.929687-2.929687 2.929687-7.679687 0-10.605469zm-248.527344-68.222656c-.007813.007813-105.3125 105.3125-105.3125 105.3125l-31.792969-31.789062 15.898437-15.894532c2.925782-2.929687 2.925782-7.679687 0-10.605468-2.929687-2.929688-7.679687-2.929688-10.609374 0l-15.894532 15.894531-31.789062-31.789063 84.097656-84.097656c0-.003906 106.0625-106.066406 106.0625-106.066406.007812-.003906 78.96875-78.96875 78.96875-78.96875l31.792969 31.789062-232.023438 232.023438c-2.929687 2.929688-2.929687 7.675781 0 10.605469 1.464844 1.464843 3.382813 2.195312 5.300781 2.195312 1.921876 0 3.839844-.730469 5.304688-2.195312l232.019531-232.019531 31.789063 31.789062zm-177.832032 138.859375-35.214843-35.214843 25.46875-59.382813 34.269531 34.269531c.09375.101563.179688.210938.277344.308594.101562.101562.207031.1875.3125.28125l34.269531 34.269531zm295.726563-405.128906 74.1875 74.1875-17.660156 17.660156-74.1875-74.1875zm37.09375-37.09375c4.222656-4.222656 9.867187-6.546875 15.894531-6.546875s11.671875 2.324219 15.894532 6.546875l42.398437 42.398437c4.21875 4.222657 6.546875 9.867188 6.546875 15.894532s-2.328125 11.671875-6.546875 15.894531l-26.488281 26.488281-74.1875-74.1875zm-302.699219-3.441406 53.941406 53.945312-26.515624 26.515625c-2.929688 2.929688-2.929688 7.675782 0 10.605469 1.464843 1.464844 3.382812 2.195313 5.300781 2.195313 1.921875 0 3.839843-.730469 5.304687-2.195313l26.515625-26.515625 11.515625 11.515625-15.90625 15.910156c-2.929687 2.929688-2.929687 7.675781 0 10.605469 1.460938 1.464844 3.382813 2.195312 5.300782 2.195312 1.917968 0 3.839843-.730468 5.304687-2.195312l15.910156-15.910156 11.515625 11.515625-15.910156 15.910156c-2.929688 2.929687-2.929688 7.679687 0 10.605469 1.464844 1.464844 3.382812 2.199218 5.300781 2.199218 1.921875 0 3.839844-.734374 5.304688-2.199218l15.910156-15.910156 11.515625 11.515624-26.515625 26.515626c-2.929687 2.929687-2.929687 7.679687 0 10.605468 1.464844 1.464844 3.382813 2.199219 5.300781 2.199219 1.921875 0 3.839844-.734375 5.304688-2.199219l26.515625-26.515625 11.546875 11.546875-74.246094 74.246094-142.460938-142.460938zm-95.460937 95.460937 10.609375-10.609375 142.464844 142.464844-10.609376 10.609375zm23.757812 329.835938 26.734375 26.734375-46.808594 20.074219zm377.785157 29.277344-142.464844-142.460938 74.246094-74.25 11.546874 11.546875-26.515624 26.515625c-2.929688 2.929688-2.929688 7.679688 0 10.609375 1.464843 1.460937 3.382812 2.195313 5.304687 2.195313 1.917969 0 3.835937-.730469 5.300781-2.195313l26.515625-26.519531 11.515625 11.519531-15.910156 15.910156c-2.929688 2.925781-2.929688 7.675781 0 10.605469 1.464844 1.464844 3.386719 2.195312 5.304688 2.195312 1.917968 0 3.839843-.730468 5.300781-2.195312l15.910156-15.910156 11.519531 11.515625-15.910156 15.910156c-2.929688 2.929687-2.929688 7.675781 0 10.605469 1.460938 1.464844 3.382812 2.195312 5.300781 2.195312s3.839844-.730468 5.304688-2.195312l15.910156-15.910156 11.515625 11.515624-26.519531 26.515626c-2.925781 2.929687-2.925781 7.679687 0 10.609374 1.464843 1.460938 3.386719 2.195313 5.304687 2.195313 1.917969 0 3.839844-.730469 5.304688-2.195313l26.515625-26.519531 53.941406 53.945313zm0 0" fill="#dcb025" data-original="#000000" style="" class=""/></g></svg>
