<?xml version="1.0"?>
<svg xmlns="http://www.w3.org/2000/svg" xmlns:xlink="http://www.w3.org/1999/xlink" xmlns:svgjs="http://svgjs.com/svgjs" version="1.1" width="512" height="512" x="0" y="0" viewBox="0 0 512 512" style="enable-background:new 0 0 512 512" xml:space="preserve"><g><g xmlns="http://www.w3.org/2000/svg"><g><path d="m121.077 109.805h82.988c4.126 0 7.471-3.344 7.471-7.471 0-4.126-3.345-7.471-7.471-7.471h-82.988c-4.126 0-7.471 3.344-7.471 7.471s3.345 7.471 7.471 7.471z" fill="#dcb025" data-original="#000000" style=""/><path d="m121.077 69.852h82.988c4.126 0 7.471-3.344 7.471-7.471s-3.345-7.471-7.471-7.471h-82.988c-4.126 0-7.471 3.344-7.471 7.471s3.345 7.471 7.471 7.471z" fill="#dcb025" data-original="#000000" style=""/><path d="m448.12 88.193-77.331-77.331c-7.004-7.005-16.316-10.862-26.221-10.862h-249.58c-23.142 0-41.969 18.827-41.969 41.969v42.832c0 4.126 3.345 7.471 7.471 7.471s7.471-3.344 7.471-7.471v-42.832c0-14.903 12.124-27.027 27.027-27.027h249.58c1.634 0 3.236.193 4.794.535v68.314c0 14.241 11.586 25.828 25.828 25.828h68.314c.343 1.558.535 3.16.535 4.794v360.507c0 12.207-9.931 22.139-22.139 22.139h-312.405c-22.902 0-41.534-18.631-41.534-41.533v-335.657c0-4.126-3.345-7.471-7.471-7.471s-7.471 3.344-7.471 7.471v335.657c0 31.14 25.335 56.475 56.475 56.475h312.406c20.447 0 37.081-16.634 37.081-37.081v-360.508c0-9.904-3.857-19.216-10.861-26.219zm-83.817-4.402v-58.283l69.169 69.169h-58.282c-6.003 0-10.887-4.883-10.887-10.886z" fill="#dcb025" data-original="#000000" style=""/><path d="m187.473 345.113c3.495-2.193 4.552-6.804 2.359-10.299-7.768-12.385-11.875-26.702-11.875-41.403 0-43.033 35.01-78.044 78.043-78.044 14.699 0 29.016 4.106 41.403 11.875 3.497 2.195 8.107 1.136 10.299-2.36 2.192-3.495 1.136-8.106-2.36-10.298-14.769-9.263-31.831-14.159-49.342-14.159-51.272 0-92.985 41.713-92.985 92.985 0 17.513 4.896 34.575 14.159 49.342 2.2 3.508 6.813 4.547 10.299 2.361z" fill="#dcb025" data-original="#000000" style=""/><path d="m102.839 277.304v32.214c0 11.942 9.715 21.657 21.656 21.657 2.88 0 5.429 1.818 6.342 4.523 1.875 5.552 4.145 11.031 6.75 16.287 1.275 2.573.763 5.67-1.278 7.71-8.464 8.464-8.464 22.163 0 30.627l22.779 22.779c8.424 8.424 22.119 8.444 30.568.058.021-.021.043-.042.064-.063 2.036-2.036 5.133-2.548 7.706-1.274 5.256 2.605 10.736 4.875 16.286 6.749 2.706.914 4.524 3.463 4.524 6.343 0 11.942 9.715 21.657 21.656 21.657h32.214c11.941 0 21.656-9.715 21.656-21.657 0-2.88 1.818-5.429 4.523-6.342 5.551-1.875 11.031-4.145 16.287-6.75 2.57-1.274 5.669-.764 7.711 1.279 4.09 4.09 9.529 6.342 15.313 6.342 5.785 0 11.223-2.253 15.313-6.342l22.779-22.779c8.444-8.445 8.444-22.183-.004-30.631-2.037-2.037-2.549-5.133-1.274-7.706 2.604-5.256 4.875-10.735 6.749-16.287.914-2.705 3.463-4.523 6.343-4.523 11.942 0 21.657-9.715 21.657-21.657v-32.214c0-11.942-9.715-21.657-21.657-21.657-2.88 0-5.429-1.818-6.342-4.524-1.875-5.553-4.146-11.032-6.75-16.286-1.275-2.573-.763-5.67 1.273-7.705.029-.029.057-.057.085-.087 8.364-8.45 8.337-22.129-.08-30.547l-22.779-22.777c-4.09-4.09-9.529-6.343-15.314-6.343s-11.223 2.252-15.317 6.346c-2.036 2.038-5.133 2.55-7.707 1.274-5.256-2.605-10.736-4.875-16.286-6.749-2.706-.914-4.524-3.463-4.524-6.343 0-11.942-9.715-21.657-21.656-21.657h-32.214c-11.941 0-21.656 9.715-21.656 21.657 0 2.88-1.818 5.429-4.523 6.342-5.551 1.875-11.031 4.145-16.287 6.75-2.571 1.273-5.669.765-7.706-1.273-.02-.02-.041-.041-.061-.061-8.449-8.387-22.146-8.368-30.57.056l-22.779 22.778c-4.09 4.09-6.343 9.529-6.343 15.313 0 5.747 2.223 11.153 6.263 15.233.028.029.056.057.085.086 2.036 2.036 2.548 5.133 1.273 7.706-2.604 5.254-4.875 10.733-6.749 16.286-.914 2.706-3.463 4.524-6.343 4.524-11.941.002-21.656 9.717-21.656 21.658zm14.942 0c0-3.702 3.012-6.715 6.714-6.715 9.294 0 17.532-5.902 20.499-14.686 1.661-4.92 3.674-9.775 5.981-14.432 4.107-8.29 2.491-18.251-4.017-24.826-.028-.028-.056-.057-.084-.086-1.268-1.268-1.967-2.954-1.967-4.748 0-1.793.698-3.479 1.967-4.747l22.779-22.778c2.619-2.619 6.878-2.619 9.496 0 .019.019.039.039.059.058 6.574 6.529 16.552 8.154 24.851 4.042 4.658-2.308 9.513-4.321 14.433-5.982 8.784-2.966 14.685-11.204 14.685-20.499 0-3.702 3.012-6.715 6.715-6.715h32.214c3.702 0 6.715 3.013 6.715 6.715 0 9.295 5.901 17.533 14.686 20.5 4.919 1.66 9.774 3.672 14.431 5.98 8.323 4.125 18.333 2.479 24.911-4.099 1.268-1.268 2.955-1.967 4.748-1.967 1.794 0 3.48.698 4.748 1.967l22.779 22.778c2.618 2.618 2.618 6.877 0 9.495-.027.027-.054.055-.081.083-6.51 6.574-8.128 16.537-4.02 24.829 2.307 4.657 4.32 9.512 5.982 14.432 2.966 8.784 11.204 14.686 20.499 14.686 3.703 0 6.715 3.013 6.715 6.715v32.214c0 3.702-3.012 6.715-6.715 6.715-9.295 0-17.533 5.901-20.499 14.685-1.661 4.919-3.673 9.775-5.981 14.433-4.124 8.323-2.478 18.332 4.101 24.911 2.618 2.618 2.618 6.877 0 9.495l-22.78 22.78c-1.268 1.268-2.954 1.966-4.748 1.966-1.793 0-3.48-.698-4.752-1.971-6.574-6.574-16.583-8.221-24.907-4.096-4.658 2.307-9.513 4.32-14.433 5.981-8.784 2.966-14.685 11.204-14.685 20.499 0 3.702-3.012 6.715-6.715 6.715h-32.214c-3.702 0-6.715-3.013-6.715-6.715 0-9.295-5.901-17.533-14.686-20.5-4.919-1.66-9.774-3.672-14.431-5.98-3.056-1.515-6.339-2.251-9.597-2.251-5.588 0-11.099 2.167-15.253 6.291-.02.02-.041.04-.061.06-2.618 2.619-6.878 2.62-9.496 0l-22.779-22.779c-2.621-2.621-2.629-6.866.004-9.499 6.574-6.575 8.221-16.584 4.097-24.907-2.308-4.658-4.32-9.514-5.982-14.433-2.966-8.784-11.204-14.685-20.499-14.685-3.702 0-6.714-3.013-6.714-6.715v-32.214z" fill="#dcb025" data-original="#000000" style=""/><path d="m256 371.454c-15.787 0-30.992-4.688-43.97-13.555-3.408-2.329-8.056-1.452-10.383 1.953-2.328 3.407-1.453 8.055 1.953 10.383 15.472 10.572 33.592 16.16 52.4 16.16 51.272 0 92.984-41.713 92.984-92.984 0-18.807-5.588-36.927-16.16-52.4-2.328-3.407-6.976-4.283-10.383-1.953-3.407 2.328-4.281 6.977-1.953 10.383 8.868 12.978 13.555 28.183 13.555 43.97 0 43.034-35.01 78.043-78.043 78.043z" fill="#dcb025" data-original="#000000" style=""/><path d="m310.675 261.443c-1.274-2.093-3.058-3.878-5.243-5.141l-42.01-24.255c-4.577-2.643-10.265-2.645-14.843 0l-42.012 24.255c-2.187 1.264-3.972 3.052-5.247 5.147-.061.096-.127.186-.185.286-.057.099-.103.202-.155.303-1.178 2.152-1.834 4.592-1.834 7.119v48.51c0 5.286 2.844 10.212 7.421 12.853l42.01 24.255c2.179 1.258 4.608 1.91 7.05 1.971.124.006.247.019.372.019.126 0 .248-.013.372-.019 2.441-.061 4.871-.713 7.049-1.971l42.009-24.254c4.578-2.642 7.423-7.568 7.423-12.854v-48.51c0-2.524-.655-4.963-1.831-7.113-.053-.102-.099-.207-.158-.308-.057-.102-.125-.195-.188-.293zm-54.675-16.427 34.482 19.861-31.458 18.162c-1.866 1.076-4.182 1.076-6.047 0l-31.418-18.139zm-41.952 32.801 31.459 18.162c.975.563 1.988 1.03 3.023 1.423v40.09l-34.441-19.884zm49.423 59.675v-40.09c1.035-.393 2.049-.861 3.023-1.423l31.417-18.138v39.768z" fill="#dcb025" data-original="#000000" style=""/></g></g></g></svg>
