<svg width="477" height="67" viewBox="0 0 477 67" fill="none" xmlns="http://www.w3.org/2000/svg">
<path d="M439.211 47.968C440.91 48.8173 442.2 49.928 443.082 51.3C443.997 52.672 444.454 54.2563 444.454 56.053C444.454 58.1763 443.85 60.0383 442.641 61.639C441.432 63.207 439.734 64.432 437.545 65.314C435.356 66.1633 432.825 66.588 429.95 66.588C427.075 66.588 424.544 66.1633 422.355 65.314C420.199 64.432 418.517 63.207 417.308 61.639C416.132 60.0383 415.544 58.1763 415.544 56.053C415.544 54.2563 415.985 52.672 416.867 51.3C417.782 49.928 419.072 48.8173 420.738 47.968C419.464 47.184 418.484 46.204 417.798 45.028C417.112 43.8193 416.769 42.4473 416.769 40.912C416.769 38.9193 417.324 37.188 418.435 35.718C419.546 34.248 421.097 33.121 423.09 32.337C425.083 31.5203 427.369 31.112 429.95 31.112C432.563 31.112 434.866 31.5203 436.859 32.337C438.884 33.121 440.452 34.248 441.563 35.718C442.674 37.188 443.229 38.9193 443.229 40.912C443.229 42.4473 442.886 43.8193 442.2 45.028C441.514 46.204 440.518 47.184 439.211 47.968ZM429.95 36.943C428.349 36.943 427.059 37.335 426.079 38.119C425.132 38.8703 424.658 39.9157 424.658 41.255C424.658 42.5617 425.132 43.5907 426.079 44.342C427.026 45.0933 428.317 45.469 429.95 45.469C431.583 45.469 432.89 45.0933 433.87 44.342C434.85 43.5907 435.34 42.5617 435.34 41.255C435.34 39.9157 434.85 38.8703 433.87 38.119C432.89 37.335 431.583 36.943 429.95 36.943ZM429.95 60.757C431.943 60.757 433.511 60.316 434.654 59.434C435.83 58.5193 436.418 57.3107 436.418 55.808C436.418 54.3053 435.83 53.113 434.654 52.231C433.511 51.349 431.943 50.908 429.95 50.908C427.99 50.908 426.438 51.349 425.295 52.231C424.152 53.113 423.58 54.3053 423.58 55.808C423.58 57.3433 424.152 58.552 425.295 59.434C426.438 60.316 427.99 60.757 429.95 60.757ZM462.396 44.489C464.584 44.489 466.577 44.93 468.374 45.812C470.17 46.694 471.591 47.9517 472.637 49.585C473.682 51.1857 474.205 53.0477 474.205 55.171C474.205 57.4577 473.633 59.4667 472.49 61.198C471.346 62.9293 469.778 64.2687 467.786 65.216C465.826 66.1307 463.637 66.588 461.22 66.588C456.418 66.588 452.661 65.118 449.95 62.178C447.238 59.238 445.883 55.0403 445.883 49.585C445.883 45.6977 446.618 42.3657 448.088 39.589C449.558 36.8123 451.599 34.7053 454.213 33.268C456.859 31.8307 459.913 31.112 463.376 31.112C465.205 31.112 466.953 31.3243 468.619 31.749C470.317 32.141 471.755 32.7127 472.931 33.464L469.991 39.295C468.292 38.1517 466.152 37.58 463.572 37.58C460.664 37.58 458.361 38.4293 456.663 40.128C454.964 41.8267 454.049 44.293 453.919 47.527C455.944 45.5017 458.77 44.489 462.396 44.489ZM460.779 60.659C462.477 60.659 463.849 60.2017 464.895 59.287C465.973 58.3723 466.512 57.131 466.512 55.563C466.512 53.995 465.973 52.7537 464.895 51.839C463.849 50.8917 462.445 50.418 460.681 50.418C458.949 50.418 457.528 50.908 456.418 51.888C455.307 52.8353 454.752 54.0603 454.752 55.563C454.752 57.0657 455.291 58.2907 456.369 59.238C457.447 60.1853 458.917 60.659 460.779 60.659Z" fill="#84716B"/>
<rect y="43.6367" width="112.251" height="3.96715" fill="#84716B"/>
<rect y="52.0664" width="112.251" height="3.96715" fill="#84716B"/>
<path d="M6.71594 38.4305L12.4724 35.7031L18.2288 38.4305V66.4485H6.71594V38.4305Z" fill="#84716B"/>
<path d="M8.15503 39.174L12.4724 37.1904L16.7897 39.174V64.9604H8.15503V39.174Z" fill="#33A32D"/>
<path d="M23.9851 38.4305L29.7415 35.7031L35.498 38.4305V66.4485H23.9851V38.4305Z" fill="#84716B"/>
<path d="M25.4243 39.174L29.7416 37.1904L34.059 39.174V64.9604H25.4243V39.174Z" fill="#33A32D"/>
<path d="M41.7343 38.4305L47.4907 35.7031L53.2471 38.4305V66.4485H41.7343V38.4305Z" fill="#84716B"/>
<path d="M43.1732 39.174L47.4905 37.1904L51.8079 39.174V64.9604H43.1732V39.174Z" fill="#33A32D"/>
<path d="M59.4832 38.4305L65.2396 35.7031L70.996 38.4305V66.4485H59.4832V38.4305Z" fill="#84716B"/>
<path d="M60.9224 39.174L65.2397 37.1904L69.557 39.174V64.9604H60.9224V39.174Z" fill="#33A32D"/>
<path d="M77.2322 38.4305L82.9886 35.7031L88.7451 38.4305V66.4485H77.2322V38.4305Z" fill="#84716B"/>
<path d="M78.6714 39.174L82.9887 37.1904L87.306 39.174V64.9604H78.6714V39.174Z" fill="#33A32D"/>
<path d="M94.5015 38.4305L100.258 35.7031L106.014 38.4305V66.4485H94.5015V38.4305Z" fill="#84716B"/>
<path d="M95.9407 39.174L100.258 37.1904L104.575 39.174V64.9604H95.9407V39.174Z" fill="#33A32D"/>
<path d="M37.177 0L53.9666 16.3645L70.0366 33.4728L67.6381 34.7125L37.177 7.4384L7.19551 34.7125H5.99626H4.797L37.177 0Z" fill="#33A32D"/>
<path d="M80.1087 7.42383L63.4426 23.5545L60.4427 26.5157L62.3615 28.9952L70.9961 21.5708L80.1087 14.756L110.332 37.6874H111.771H112.49L80.1087 7.42383Z" fill="#33A32D"/>
<rect x="93.0624" y="15.8691" width="3.35793" height="7.43839" fill="#33A32D"/>
<rect x="91.6234" y="13.3896" width="6.23614" height="2.47947" fill="#33A32D"/>
<rect x="50.3687" y="8.92773" width="3.35792" height="7.4384" fill="#33A32D"/>
<rect x="48.9298" y="6.44629" width="6.23614" height="2.47947" fill="#33A32D"/>
<rect x="82.0293" y="22.8125" width="3.35792" height="3.47125" fill="#33A32D"/>
<rect x="82.0293" y="27.2744" width="3.35792" height="3.47125" fill="#33A32D"/>
<rect x="77.7119" y="27.2744" width="3.35792" height="3.47125" fill="#33A32D"/>
<rect x="77.7119" y="22.8135" width="3.35792" height="3.47125" fill="#33A32D"/>
<rect x="38.0165" y="18.8428" width="4.1974" height="4.33906" fill="#33A32D"/>
<rect x="38.0165" y="24.4219" width="4.1974" height="4.33907" fill="#33A32D"/>
<rect x="32.6198" y="24.4219" width="4.1974" height="4.33907" fill="#33A32D"/>
<rect x="32.6198" y="18.8428" width="4.1974" height="4.33906" fill="#33A32D"/>
<path d="M160.832 20.432C165.312 20.432 169.344 21.4347 172.928 23.44C176.555 25.4453 179.392 28.2187 181.44 31.76C183.488 35.2587 184.512 39.2053 184.512 43.6C184.512 47.9947 183.488 51.9627 181.44 55.504C179.392 59.0027 176.555 61.7547 172.928 63.76C169.344 65.7653 165.312 66.768 160.832 66.768C156.822 66.768 153.152 65.9787 149.824 64.4C146.496 62.7787 143.744 60.5387 141.568 57.68C139.435 54.7787 138.07 51.472 137.472 47.76H131.584V66H121.28V21.2H131.584V38.8H137.6C138.283 35.216 139.691 32.0373 141.824 29.264C144 26.448 146.731 24.272 150.016 22.736C153.302 21.2 156.907 20.432 160.832 20.432ZM160.832 57.936C163.307 57.936 165.547 57.3387 167.552 56.144C169.558 54.9493 171.136 53.264 172.288 51.088C173.44 48.912 174.016 46.416 174.016 43.6C174.016 40.784 173.44 38.288 172.288 36.112C171.136 33.936 169.558 32.2507 167.552 31.056C165.547 29.8613 163.307 29.264 160.832 29.264C158.358 29.264 156.118 29.8613 154.112 31.056C152.107 32.2507 150.528 33.936 149.376 36.112C148.224 38.288 147.648 40.784 147.648 43.6C147.648 46.416 148.224 48.912 149.376 51.088C150.528 53.264 152.107 54.9493 154.112 56.144C156.118 57.3387 158.358 57.936 160.832 57.936ZM217.169 48.016C221.222 49.3813 223.249 52.112 223.249 56.208C223.249 59.3227 222.076 61.7333 219.729 63.44C217.382 65.1467 213.884 66 209.233 66H190.865V31.568H208.465C212.774 31.568 216.145 32.3573 218.577 33.936C221.009 35.472 222.225 37.648 222.225 40.464C222.225 42.1707 221.777 43.6853 220.881 45.008C220.028 46.288 218.79 47.2907 217.169 48.016ZM200.017 45.712H207.569C211.068 45.712 212.817 44.4747 212.817 42C212.817 39.568 211.068 38.352 207.569 38.352H200.017V45.712ZM208.401 59.216C212.07 59.216 213.905 57.9573 213.905 55.44C213.905 54.1173 213.478 53.1573 212.625 52.56C211.772 51.92 210.428 51.6 208.593 51.6H200.017V59.216H208.401ZM246.869 58.512C248.661 58.512 250.24 58.256 251.605 57.744C253.013 57.1893 254.315 56.336 255.509 55.184L260.821 60.944C257.579 64.656 252.843 66.512 246.613 66.512C242.731 66.512 239.296 65.7653 236.309 64.272C233.323 62.736 231.019 60.624 229.397 57.936C227.776 55.248 226.965 52.1973 226.965 48.784C226.965 45.4133 227.755 42.384 229.333 39.696C230.955 36.9653 233.152 34.8533 235.925 33.36C238.741 31.824 241.899 31.056 245.397 31.056C248.683 31.056 251.669 31.76 254.357 33.168C257.045 34.5333 259.179 36.5387 260.757 39.184C262.379 41.7867 263.189 44.88 263.189 48.464L237.717 53.392C238.443 55.0987 239.573 56.3787 241.109 57.232C242.688 58.0853 244.608 58.512 246.869 58.512ZM245.397 38.608C242.88 38.608 240.832 39.4187 239.253 41.04C237.675 42.6613 236.843 44.9013 236.757 47.76L253.525 44.496C253.056 42.704 252.096 41.2747 250.645 40.208C249.195 39.1413 247.445 38.608 245.397 38.608ZM285.516 66.512C281.847 66.512 278.54 65.7653 275.596 64.272C272.695 62.736 270.412 60.624 268.748 57.936C267.127 55.248 266.316 52.1973 266.316 48.784C266.316 45.3707 267.127 42.32 268.748 39.632C270.412 36.944 272.695 34.8533 275.596 33.36C278.54 31.824 281.847 31.056 285.516 31.056C289.143 31.056 292.3 31.824 294.988 33.36C297.719 34.8533 299.703 37.008 300.94 39.824L293.196 43.984C291.404 40.8267 288.823 39.248 285.452 39.248C282.85 39.248 280.695 40.1013 278.988 41.808C277.282 43.5147 276.428 45.84 276.428 48.784C276.428 51.728 277.282 54.0533 278.988 55.76C280.695 57.4667 282.85 58.32 285.452 58.32C288.866 58.32 291.447 56.7413 293.196 53.584L300.94 57.808C299.703 60.5387 297.719 62.672 294.988 64.208C292.3 65.744 289.143 66.512 285.516 66.512ZM350.079 31.056C354.389 31.056 357.802 32.336 360.319 34.896C362.88 37.4133 364.16 41.2107 364.16 46.288V66H354.175V47.824C354.175 45.0933 353.599 43.0667 352.447 41.744C351.338 40.3787 349.738 39.696 347.647 39.696C345.301 39.696 343.445 40.464 342.079 42C340.714 43.4933 340.031 45.7333 340.031 48.72V66H330.047V47.824C330.047 42.4053 327.871 39.696 323.519 39.696C321.215 39.696 319.381 40.464 318.015 42C316.65 43.4933 315.967 45.7333 315.967 48.72V66H305.983V31.568H315.519V35.536C316.799 34.0853 318.357 32.976 320.191 32.208C322.069 31.44 324.117 31.056 326.335 31.056C328.767 31.056 330.965 31.5467 332.927 32.528C334.89 33.4667 336.469 34.8533 337.663 36.688C339.072 34.896 340.842 33.5093 342.975 32.528C345.151 31.5467 347.519 31.056 350.079 31.056ZM406.652 31.568V66H397.116V62.032C394.641 65.0187 391.057 66.512 386.364 66.512C383.121 66.512 380.177 65.7867 377.532 64.336C374.929 62.8853 372.881 60.816 371.388 58.128C369.895 55.44 369.148 52.3253 369.148 48.784C369.148 45.2427 369.895 42.128 371.388 39.44C372.881 36.752 374.929 34.6827 377.532 33.232C380.177 31.7813 383.121 31.056 386.364 31.056C390.759 31.056 394.193 32.4427 396.668 35.216V31.568H406.652ZM388.092 58.32C390.609 58.32 392.7 57.4667 394.364 55.76C396.028 54.0107 396.86 51.6853 396.86 48.784C396.86 45.8827 396.028 43.5787 394.364 41.872C392.7 40.1227 390.609 39.248 388.092 39.248C385.532 39.248 383.42 40.1227 381.756 41.872C380.092 43.5787 379.26 45.8827 379.26 48.784C379.26 51.6853 380.092 54.0107 381.756 55.76C383.42 57.4667 385.532 58.32 388.092 58.32Z" fill="#33A32D"/>
</svg>
